<mxfile host="app.diagrams.net" modified="2023-07-26T14:21:18.402Z" agent="Mozilla/5.0 (Windows NT 10.0; Win64; x64) AppleWebKit/537.36 (KHTML, like Gecko) Chrome/115.0.0.0 Safari/537.36" etag="8rc2ri1RBBI9p_G44frx" version="21.6.2" type="github">
  <diagram name="Page-1" id="5gpsxIy_XTjG-tOdAlHC">
    <mxGraphModel dx="792" dy="1118" grid="1" gridSize="10" guides="1" tooltips="1" connect="1" arrows="1" fold="1" page="1" pageScale="1" pageWidth="850" pageHeight="1100" math="0" shadow="0">
      <root>
        <mxCell id="0" />
        <mxCell id="1" parent="0" />
      </root>
    </mxGraphModel>
  </diagram>
</mxfile>
